<?xml version="1.0" encoding="UTF-8" standalone="no"?>
<!DOCTYPE svg PUBLIC "-//W3C//DTD SVG 1.1//EN" "http://www.w3.org/Graphics/SVG/1.1/DTD/svg11.dtd">
<svg width="3780px" height="1890px" version="1.1" xmlns="http://www.w3.org/2000/svg" xmlns:xlink="http://www.w3.org/1999/xlink" xml:space="preserve" xmlns:serif="http://www.serif.com/" style="fill-rule:evenodd;clip-rule:evenodd;stroke-linecap:round;stroke-linejoin:round;stroke-miterlimit:1.5;">
    <g id="drawing">
        <g transform="matrix(1.40253,0,0,1.52088,-906.934,-778.426)">
            <ellipse cx="2121.5" cy="1199" rx="828.5" ry="479" style="fill:white;stroke:black;stroke-width:5.7px;"/>
        </g>
        <g transform="matrix(1,0,0,1,-185,-16.75)">
            <path d="M276.122,304.5C269.857,304.5 263.849,306.989 259.419,311.419C254.989,315.849 252.5,321.857 252.5,328.122C252.5,368.627 252.5,450.873 252.5,491.378C252.5,497.643 254.989,503.651 259.419,508.081C263.849,512.511 269.857,515 276.122,515C386.007,515 844.651,515 911.784,515C917.105,515 922.27,513.204 926.443,509.902C944.851,495.334 998.359,452.99 1029.59,428.274C1035.25,423.793 1038.56,416.97 1038.56,409.75C1038.56,402.53 1035.25,395.707 1029.59,391.226C998.359,366.51 944.851,324.166 926.443,309.598C922.27,306.296 917.105,304.5 911.784,304.5L276.122,304.5Z" style="fill:white;stroke:black;stroke-width:8.33px;"/>
        </g>
        <g transform="matrix(1,0,0,1,1057.42,280.787)">
            <path d="M276.122,304.5C269.857,304.5 263.849,306.989 259.419,311.419C254.989,315.849 252.5,321.857 252.5,328.122C252.5,368.627 252.5,450.873 252.5,491.378C252.5,497.643 254.989,503.651 259.419,508.081C263.849,512.511 269.857,515 276.122,515C334.782,515 485.011,515 521.784,515C527.105,515 532.27,513.204 536.443,509.902C554.851,495.334 608.359,452.99 639.593,428.274C645.254,423.793 648.556,416.97 648.556,409.75C648.556,402.53 645.254,395.707 639.593,391.226C608.359,366.51 554.851,324.166 536.443,309.598C532.27,306.296 527.105,304.5 521.784,304.5L276.122,304.5Z" style="fill:white;stroke:black;stroke-width:8.33px;"/>
        </g>
        <g transform="matrix(1,0,0,1,937.01,653.892)">
            <path d="M276.122,304.5C269.857,304.5 263.849,306.989 259.419,311.419C254.989,315.849 252.5,321.857 252.5,328.122C252.5,368.627 252.5,450.873 252.5,491.378C252.5,497.643 254.989,503.651 259.419,508.081C263.849,512.511 269.857,515 276.122,515C334.782,515 485.011,515 521.784,515C527.105,515 532.27,513.204 536.443,509.902C554.851,495.334 608.359,452.99 639.593,428.274C645.254,423.793 648.556,416.97 648.556,409.75C648.556,402.53 645.254,395.707 639.593,391.226C608.359,366.51 554.851,324.166 536.443,309.598C532.27,306.296 527.105,304.5 521.784,304.5L276.122,304.5Z" style="fill:white;stroke:black;stroke-width:8.33px;"/>
        </g>
        <g transform="matrix(1,0,0,1,1141.24,1027)">
            <path d="M276.122,304.5C269.857,304.5 263.849,306.989 259.419,311.419C254.989,315.849 252.5,321.857 252.5,328.122C252.5,368.627 252.5,450.873 252.5,491.378C252.5,497.643 254.989,503.651 259.419,508.081C263.849,512.511 269.857,515 276.122,515C334.782,515 485.011,515 521.784,515C527.105,515 532.27,513.204 536.443,509.902C554.851,495.334 608.359,452.99 639.593,428.274C645.254,423.793 648.556,416.97 648.556,409.75C648.556,402.53 645.254,395.707 639.593,391.226C608.359,366.51 554.851,324.166 536.443,309.598C532.27,306.296 527.105,304.5 521.784,304.5L276.122,304.5Z" style="fill:white;stroke:black;stroke-width:8.33px;"/>
        </g>
        <g transform="matrix(1,0,0,1,-298,-327)">
            <path d="M1152,720C1277.79,719.995 1438.27,822.38 1488.09,890.366" style="fill:none;stroke:black;stroke-width:8.33px;"/>
        </g>
        <g transform="matrix(1,0,0,1,-276.205,-440.213)">
            <rect x="2366.54" y="940" width="151" height="151" style="fill:white;stroke:black;stroke-width:8.33px;"/>
            <g transform="matrix(1,0,0,1,151,-1.15463e-13)">
                <rect x="2366.54" y="940" width="151" height="151" style="fill:white;stroke:black;stroke-width:8.33px;"/>
            </g>
            <g transform="matrix(1,0,0,1,302,-3.42837e-13)">
                <rect x="2366.54" y="940" width="151" height="151" style="fill:white;stroke:black;stroke-width:8.33px;"/>
            </g>
        </g>
        <g transform="matrix(1,0,0,1,-326.876,-382.728)">
            <g transform="matrix(1,0,0,1,-41.1727,380.848)">
                <rect x="2366.54" y="940" width="151" height="151" style="fill:white;stroke:black;stroke-width:8.33px;"/>
            </g>
            <g transform="matrix(1,0,0,1,109.827,380.848)">
                <rect x="2366.54" y="940" width="151" height="151" style="fill:white;stroke:black;stroke-width:8.33px;"/>
            </g>
            <g transform="matrix(1,0,0,1,260.827,380.848)">
                <rect x="2366.54" y="940" width="151" height="151" style="fill:white;stroke:black;stroke-width:8.33px;"/>
            </g>
            <g transform="matrix(1,0,0,1,411.827,380.848)">
                <rect x="2366.54" y="940" width="151" height="151" style="fill:white;stroke:black;stroke-width:8.33px;"/>
            </g>
        </g>
        <g transform="matrix(1,0,0,1,-151.799,-296.655)">
            <g transform="matrix(1,0,0,1,-7.71988,761.695)">
                <rect x="2366.54" y="940" width="151" height="151" style="fill:white;stroke:black;stroke-width:8.33px;"/>
            </g>
            <g transform="matrix(1,0,0,1,143.28,761.695)">
                <rect x="2366.54" y="940" width="151" height="151" style="fill:white;stroke:black;stroke-width:8.33px;"/>
            </g>
        </g>
        <g transform="matrix(1.05279,0,0,1.1191,-413.092,-551.162)">
            <ellipse cx="2593.04" cy="1015.5" rx="389.957" ry="165.602" style="fill:none;stroke:black;stroke-width:7.67px;"/>
        </g>
        <g transform="matrix(1.16139,0,0,1.14596,-727.057,-128.67)">
            <ellipse cx="2593.04" cy="1015.5" rx="389.957" ry="165.602" style="fill:none;stroke:black;stroke-width:7.22px;"/>
        </g>
        <g transform="matrix(0.860181,0,0,1.23821,127.538,223.141)">
            <ellipse cx="2593.04" cy="1015.5" rx="389.957" ry="165.602" style="fill:none;stroke:black;stroke-width:7.82px;"/>
        </g>
        <g transform="matrix(1,0,0,1,-298,-327)">
            <path d="M2005,1017.54C2082.97,1017.89 2156.56,1008.85 2238.05,985.943" style="fill:none;stroke:black;stroke-width:8.33px;"/>
        </g>
        <g transform="matrix(1,0,0,1,-298,-327)">
            <path d="M1883.57,1390.64C1957.64,1392.24 2086.1,1379.05 2129.59,1366.25" style="fill:none;stroke:black;stroke-width:8.33px;"/>
        </g>
        <g transform="matrix(1,0,0,1,-298,-327)">
            <path d="M2088,1763.75C2166.39,1759.84 2244,1763.66 2320.59,1777.75" style="fill:none;stroke:black;stroke-width:8.33px;"/>
        </g>
    </g>
    <g id="content_generic_1">
        <g transform="matrix(1,0,0,1,1834.57,297.154)">
            <g transform="matrix(100,0,0,100,518.821,752.501)">
                <path d="M0.183,-0L0.288,-0L0.288,-0.65L0.196,-0.65L0.053,-0.571L0.072,-0.488L0.181,-0.547L0.183,-0.547L0.183,-0Z" style="fill-rule:nonzero;"/>
            </g>
        </g>
        <g transform="matrix(1,0,0,1,1841.57,392.413)">
            <g transform="matrix(58.3333,0,0,58.3333,518.821,752.501)">
                <path d="M0.345,-0L0.345,-0.068L0.129,-0.068L0.129,-0.07L0.172,-0.13C0.253,-0.24 0.332,-0.358 0.332,-0.48C0.332,-0.578 0.286,-0.658 0.178,-0.658C0.119,-0.658 0.073,-0.633 0.051,-0.614L0.07,-0.556C0.086,-0.567 0.117,-0.592 0.164,-0.592C0.225,-0.592 0.256,-0.548 0.256,-0.476C0.256,-0.354 0.165,-0.232 0.087,-0.124L0.033,-0.05L0.033,-0L0.345,-0Z" style="fill-rule:nonzero;"/>
            </g>
        </g>
        <g transform="matrix(1,0,0,1,1937.39,-47.7862)">
            <g transform="matrix(58.3333,0,0,58.3333,518.821,752.501)">
                <path d="M0.345,-0L0.345,-0.068L0.129,-0.068L0.129,-0.07L0.172,-0.13C0.253,-0.24 0.332,-0.358 0.332,-0.48C0.332,-0.578 0.286,-0.658 0.178,-0.658C0.119,-0.658 0.073,-0.633 0.051,-0.614L0.07,-0.556C0.086,-0.567 0.117,-0.592 0.164,-0.592C0.225,-0.592 0.256,-0.548 0.256,-0.476C0.256,-0.354 0.165,-0.232 0.087,-0.124L0.033,-0.05L0.033,-0L0.345,-0Z" style="fill-rule:nonzero;"/>
            </g>
        </g>
        <g transform="matrix(1,0,0,1,1627.97,-143.186)">
            <g transform="matrix(100,0,0,100,518.821,752.501)">
                <path d="M0.338,-0.658C0.326,-0.657 0.306,-0.656 0.281,-0.651C0.225,-0.64 0.163,-0.607 0.122,-0.557C0.066,-0.49 0.026,-0.393 0.026,-0.259C0.026,-0.102 0.092,0.008 0.211,0.008C0.328,0.008 0.385,-0.1 0.385,-0.219C0.385,-0.342 0.326,-0.419 0.241,-0.419C0.195,-0.419 0.161,-0.396 0.136,-0.363L0.133,-0.363C0.149,-0.452 0.192,-0.541 0.288,-0.564C0.307,-0.568 0.324,-0.57 0.338,-0.57L0.338,-0.658ZM0.211,-0.071C0.165,-0.071 0.133,-0.13 0.133,-0.237C0.133,-0.262 0.136,-0.279 0.139,-0.286C0.154,-0.324 0.18,-0.341 0.206,-0.341C0.253,-0.341 0.278,-0.291 0.279,-0.216C0.279,-0.123 0.254,-0.071 0.211,-0.071Z" style="fill-rule:nonzero;"/>
            </g>
        </g>
        <g transform="matrix(1,0,0,1,1533.12,297.154)">
            <g transform="matrix(100,0,0,100,518.821,752.501)">
                <path d="M0.038,-0.65L0.038,-0.556L0.265,-0.556L0.265,-0.554L0.063,-0L0.167,-0L0.374,-0.582L0.374,-0.65L0.038,-0.65Z" style="fill-rule:nonzero;"/>
            </g>
        </g>
        <g transform="matrix(1,0,0,1,1541.12,392.413)">
            <g transform="matrix(58.3333,0,0,58.3333,518.821,752.501)">
                <path d="M0.198,-0.658C0.092,-0.658 0.027,-0.543 0.027,-0.324C0.027,-0.112 0.088,0.008 0.189,0.008C0.283,0.008 0.358,-0.089 0.358,-0.326C0.358,-0.533 0.303,-0.658 0.198,-0.658ZM0.194,-0.592C0.256,-0.592 0.281,-0.477 0.281,-0.325C0.281,-0.169 0.256,-0.058 0.194,-0.058C0.13,-0.058 0.103,-0.168 0.104,-0.325C0.104,-0.482 0.131,-0.592 0.194,-0.592Z" style="fill-rule:nonzero;"/>
            </g>
        </g>
        <g transform="matrix(1,0,0,1,1753.79,857.158)">
            <g transform="matrix(58.3333,0,0,58.3333,518.821,752.501)">
                <path d="M0.198,-0.658C0.092,-0.658 0.027,-0.543 0.027,-0.324C0.027,-0.112 0.088,0.008 0.189,0.008C0.283,0.008 0.358,-0.089 0.358,-0.326C0.358,-0.533 0.303,-0.658 0.198,-0.658ZM0.194,-0.592C0.256,-0.592 0.281,-0.477 0.281,-0.325C0.281,-0.169 0.256,-0.058 0.194,-0.058C0.13,-0.058 0.103,-0.168 0.104,-0.325C0.104,-0.482 0.131,-0.592 0.194,-0.592Z" style="fill-rule:nonzero;"/>
            </g>
        </g>
        <g transform="matrix(1,0,0,1,1636.95,-47.7862)">
            <g transform="matrix(58.3333,0,0,58.3333,518.821,752.501)">
                <path d="M0.198,-0.658C0.092,-0.658 0.027,-0.543 0.027,-0.324C0.027,-0.112 0.088,0.008 0.189,0.008C0.283,0.008 0.358,-0.089 0.358,-0.326C0.358,-0.533 0.303,-0.658 0.198,-0.658ZM0.194,-0.592C0.256,-0.592 0.281,-0.477 0.281,-0.325C0.281,-0.169 0.256,-0.058 0.194,-0.058C0.13,-0.058 0.103,-0.168 0.104,-0.325C0.104,-0.482 0.131,-0.592 0.194,-0.592Z" style="fill-rule:nonzero;"/>
            </g>
        </g>
        <g transform="matrix(1,0,0,1,1739.79,762.118)">
            <g transform="matrix(100,0,0,100,518.821,752.501)">
                <path d="M0.026,-0.021C0.053,-0.005 0.099,0.008 0.147,0.008C0.278,0.008 0.351,-0.084 0.351,-0.186C0.351,-0.28 0.299,-0.335 0.238,-0.354L0.238,-0.356C0.298,-0.384 0.333,-0.439 0.333,-0.505C0.333,-0.588 0.278,-0.658 0.173,-0.658C0.122,-0.658 0.073,-0.641 0.047,-0.622L0.065,-0.542C0.087,-0.557 0.116,-0.57 0.146,-0.57C0.194,-0.57 0.226,-0.539 0.226,-0.484C0.226,-0.413 0.161,-0.386 0.113,-0.386L0.1,-0.386L0.1,-0.307L0.118,-0.307C0.189,-0.307 0.244,-0.268 0.244,-0.19C0.244,-0.123 0.205,-0.08 0.139,-0.08C0.103,-0.08 0.067,-0.092 0.044,-0.106L0.026,-0.021Z" style="fill-rule:nonzero;"/>
            </g>
        </g>
        <g transform="matrix(1,0,0,1,1897.48,762.518)">
            <g transform="matrix(100,0,0,100,518.821,752.501)">
                <path d="M0.183,-0L0.288,-0L0.288,-0.65L0.196,-0.65L0.053,-0.571L0.072,-0.488L0.181,-0.547L0.183,-0.547L0.183,-0Z" style="fill-rule:nonzero;"/>
            </g>
        </g>
        <g transform="matrix(1,0,0,1,1689.37,297.554)">
            <g transform="matrix(100,0,0,100,518.821,752.501)">
                <path d="M0.126,-0.343C0.073,-0.308 0.024,-0.25 0.024,-0.164C0.024,-0.07 0.091,0.008 0.201,0.008C0.304,0.008 0.383,-0.065 0.383,-0.177C0.383,-0.255 0.341,-0.314 0.281,-0.35L0.281,-0.353C0.346,-0.395 0.368,-0.452 0.368,-0.501C0.368,-0.588 0.306,-0.658 0.213,-0.658C0.121,-0.658 0.043,-0.595 0.043,-0.491C0.043,-0.438 0.071,-0.382 0.125,-0.345L0.126,-0.343ZM0.205,-0.066C0.155,-0.066 0.128,-0.114 0.128,-0.178C0.128,-0.232 0.155,-0.279 0.197,-0.306C0.239,-0.28 0.279,-0.24 0.279,-0.172C0.279,-0.105 0.249,-0.066 0.205,-0.066ZM0.207,-0.584C0.25,-0.584 0.269,-0.543 0.269,-0.49C0.269,-0.447 0.248,-0.406 0.215,-0.385C0.176,-0.408 0.144,-0.44 0.144,-0.495C0.144,-0.544 0.167,-0.584 0.207,-0.584Z" style="fill-rule:nonzero;"/>
            </g>
        </g>
        <g transform="matrix(1,0,0,1,1693.37,392.813)">
            <g transform="matrix(58.3333,0,0,58.3333,518.821,752.501)">
                <path d="M0.188,-0L0.263,-0L0.263,-0.65L0.2,-0.65L0.063,-0.57L0.078,-0.51L0.186,-0.572L0.188,-0.572L0.188,-0Z" style="fill-rule:nonzero;"/>
            </g>
        </g>
        <g transform="matrix(1,0,0,1,1906.04,857.558)">
            <g transform="matrix(58.3333,0,0,58.3333,518.821,752.501)">
                <path d="M0.188,-0L0.263,-0L0.263,-0.65L0.2,-0.65L0.063,-0.57L0.078,-0.51L0.186,-0.572L0.188,-0.572L0.188,-0Z" style="fill-rule:nonzero;"/>
            </g>
        </g>
        <g transform="matrix(1,0,0,1,1789.19,-47.3862)">
            <g transform="matrix(58.3333,0,0,58.3333,518.821,752.501)">
                <path d="M0.188,-0L0.263,-0L0.263,-0.65L0.2,-0.65L0.063,-0.57L0.078,-0.51L0.186,-0.572L0.188,-0.572L0.188,-0Z" style="fill-rule:nonzero;"/>
            </g>
        </g>
        <g transform="matrix(1,0,0,1,1988.72,297.154)">
            <g transform="matrix(100,0,0,100,518.821,752.501)">
                <path d="M0.363,-0L0.363,-0.094L0.157,-0.094L0.157,-0.096L0.198,-0.148C0.275,-0.245 0.353,-0.352 0.353,-0.474C0.353,-0.57 0.307,-0.658 0.18,-0.658C0.121,-0.658 0.07,-0.635 0.044,-0.616L0.065,-0.534C0.085,-0.547 0.117,-0.568 0.161,-0.568C0.218,-0.568 0.248,-0.528 0.248,-0.467C0.248,-0.361 0.169,-0.257 0.088,-0.15L0.028,-0.071L0.028,-0L0.363,-0Z" style="fill-rule:nonzero;"/>
            </g>
        </g>
        <g transform="matrix(1,0,0,1,1996.72,392.413)">
            <g transform="matrix(58.3333,0,0,58.3333,518.821,752.501)">
                <path d="M0.028,-0.022C0.054,-0.004 0.1,0.008 0.142,0.008C0.26,0.008 0.328,-0.078 0.328,-0.184C0.328,-0.286 0.272,-0.338 0.214,-0.354L0.214,-0.356C0.277,-0.385 0.311,-0.443 0.311,-0.508C0.311,-0.592 0.259,-0.658 0.167,-0.658C0.118,-0.658 0.074,-0.64 0.05,-0.621L0.067,-0.563C0.088,-0.578 0.116,-0.594 0.148,-0.594C0.199,-0.594 0.234,-0.56 0.234,-0.494C0.234,-0.413 0.163,-0.378 0.117,-0.378L0.102,-0.378L0.102,-0.32L0.12,-0.32C0.198,-0.32 0.251,-0.271 0.251,-0.185C0.251,-0.105 0.206,-0.056 0.138,-0.056C0.099,-0.056 0.065,-0.071 0.045,-0.083L0.028,-0.022Z" style="fill-rule:nonzero;"/>
            </g>
        </g>
        <g transform="matrix(1,0,0,1,1778.97,-143.586)">
            <g transform="matrix(100,0,0,100,518.821,752.501)">
                <path d="M0.35,-0.65L0.098,-0.65L0.06,-0.335C0.073,-0.337 0.088,-0.338 0.108,-0.338C0.188,-0.338 0.252,-0.303 0.252,-0.208C0.252,-0.125 0.203,-0.08 0.138,-0.08C0.103,-0.08 0.068,-0.092 0.046,-0.104L0.027,-0.019C0.053,-0.003 0.101,0.008 0.144,0.008C0.275,0.008 0.357,-0.09 0.357,-0.218C0.357,-0.284 0.337,-0.333 0.302,-0.367C0.266,-0.402 0.21,-0.416 0.179,-0.416C0.171,-0.416 0.164,-0.416 0.157,-0.415L0.177,-0.557L0.35,-0.557L0.35,-0.65Z" style="fill-rule:nonzero;"/>
            </g>
        </g>
        <g transform="matrix(1,0,0,1,1926.08,-143.186)">
            <g transform="matrix(100,0,0,100,518.821,752.501)">
                <path d="M0.183,-0L0.288,-0L0.288,-0.65L0.196,-0.65L0.053,-0.571L0.072,-0.488L0.181,-0.547L0.183,-0.547L0.183,-0Z" style="fill-rule:nonzero;"/>
            </g>
        </g>
    </g>
    <g id="content_fi_1" transform="matrix(1,0,0,1,1147.25,299.237)">
        <g transform="matrix(1,0,0,1,-289,-332)">
            <g transform="matrix(100,0,0,100,518.821,752.501)">
                <path d="M0.346,-0.305C0.346,-0.408 0.314,-0.494 0.188,-0.494C0.129,-0.494 0.078,-0.474 0.054,-0.459L0.074,-0.387C0.101,-0.403 0.13,-0.413 0.165,-0.413C0.218,-0.413 0.238,-0.378 0.238,-0.328L0.238,-0.315C0.128,-0.314 0.022,-0.261 0.022,-0.136C0.022,-0.05 0.075,0.008 0.145,0.008C0.187,0.008 0.223,-0.012 0.248,-0.05L0.25,-0.05L0.256,-0L0.352,-0C0.347,-0.032 0.346,-0.073 0.346,-0.111L0.346,-0.305ZM0.241,-0.153C0.241,-0.144 0.24,-0.136 0.238,-0.128C0.229,-0.09 0.204,-0.072 0.177,-0.072C0.153,-0.072 0.124,-0.092 0.124,-0.147C0.124,-0.232 0.199,-0.243 0.241,-0.244L0.241,-0.153Z" style="fill-rule:nonzero;"/>
            </g>
            <g transform="matrix(100,0,0,100,558.421,752.501)">
                <path d="M0.377,-0.487L0.27,-0.487L0.27,-0.171C0.27,-0.155 0.268,-0.14 0.264,-0.129C0.259,-0.11 0.242,-0.081 0.209,-0.081C0.165,-0.081 0.153,-0.13 0.153,-0.199L0.153,-0.487L0.046,-0.487L0.046,-0.186C0.046,-0.059 0.082,0.008 0.171,0.008C0.222,0.008 0.261,-0.022 0.28,-0.051L0.282,-0.051L0.288,-0L0.381,-0C0.379,-0.041 0.377,-0.089 0.377,-0.142L0.377,-0.487Z" style="fill-rule:nonzero;"/>
            </g>
            <g transform="matrix(100,0,0,100,601.221,752.501)">
                <path d="M0.07,-0.571L0.07,-0.487L0.012,-0.487L0.012,-0.41L0.07,-0.41L0.07,-0.156C0.07,-0.083 0.082,-0.048 0.106,-0.024C0.127,-0.003 0.158,0.006 0.192,0.006C0.222,0.006 0.246,0.003 0.262,-0.002L0.26,-0.085C0.249,-0.083 0.239,-0.082 0.227,-0.082C0.2,-0.082 0.177,-0.097 0.177,-0.157L0.177,-0.41L0.271,-0.41L0.271,-0.487L0.177,-0.487L0.177,-0.608L0.07,-0.571Z" style="fill-rule:nonzero;"/>
            </g>
            <g transform="matrix(100,0,0,100,629.121,752.501)">
                <path d="M0.208,-0.494C0.117,-0.494 0.031,-0.418 0.031,-0.242C0.031,-0.078 0.101,0.008 0.204,0.008C0.278,0.008 0.379,-0.048 0.379,-0.244C0.379,-0.404 0.31,-0.494 0.208,-0.494ZM0.206,-0.412C0.261,-0.412 0.273,-0.314 0.273,-0.244C0.273,-0.17 0.261,-0.074 0.208,-0.074C0.151,-0.074 0.137,-0.162 0.137,-0.244C0.137,-0.314 0.149,-0.412 0.206,-0.412Z" style="fill-rule:nonzero;"/>
            </g>
        </g>
        <g transform="matrix(1,0,0,1,-418.095,36.9046)">
            <g transform="matrix(100,0,0,100,518.821,752.501)">
                <path d="M0.049,-0L0.155,-0L0.155,-0.307C0.155,-0.321 0.157,-0.335 0.159,-0.346C0.168,-0.385 0.193,-0.405 0.219,-0.405C0.267,-0.405 0.273,-0.354 0.273,-0.311L0.273,-0L0.379,-0L0.379,-0.31C0.379,-0.324 0.38,-0.339 0.383,-0.348C0.392,-0.384 0.414,-0.405 0.442,-0.405C0.489,-0.405 0.497,-0.353 0.497,-0.294L0.497,-0L0.603,-0L0.603,-0.314C0.603,-0.434 0.559,-0.494 0.481,-0.494C0.456,-0.494 0.433,-0.488 0.413,-0.476C0.395,-0.464 0.377,-0.445 0.365,-0.424L0.363,-0.424C0.345,-0.47 0.309,-0.494 0.259,-0.494C0.208,-0.494 0.168,-0.465 0.145,-0.428L0.143,-0.428L0.138,-0.487L0.045,-0.487C0.047,-0.444 0.049,-0.405 0.049,-0.35L0.049,-0Z" style="fill-rule:nonzero;"/>
            </g>
            <g transform="matrix(100,0,0,100,584.121,752.501)">
                <path d="M0.208,-0.494C0.117,-0.494 0.031,-0.418 0.031,-0.242C0.031,-0.078 0.101,0.008 0.204,0.008C0.278,0.008 0.379,-0.048 0.379,-0.244C0.379,-0.404 0.31,-0.494 0.208,-0.494ZM0.206,-0.412C0.261,-0.412 0.273,-0.314 0.273,-0.244C0.273,-0.17 0.261,-0.074 0.208,-0.074C0.151,-0.074 0.137,-0.162 0.137,-0.244C0.137,-0.314 0.149,-0.412 0.206,-0.412Z" style="fill-rule:nonzero;"/>
            </g>
            <g transform="matrix(100,0,0,100,625.121,752.501)">
                <path d="M0.049,0.192L0.155,0.192L0.155,-0.043L0.157,-0.043C0.171,-0.018 0.197,0.008 0.24,0.008C0.319,0.008 0.394,-0.067 0.394,-0.244C0.394,-0.39 0.345,-0.494 0.248,-0.494C0.206,-0.494 0.169,-0.472 0.146,-0.427L0.144,-0.427L0.138,-0.487L0.045,-0.487C0.047,-0.446 0.049,-0.4 0.049,-0.334L0.049,0.192ZM0.155,-0.306C0.155,-0.319 0.156,-0.331 0.159,-0.342C0.165,-0.374 0.189,-0.404 0.216,-0.404C0.265,-0.404 0.288,-0.339 0.288,-0.242C0.288,-0.157 0.27,-0.08 0.215,-0.08C0.198,-0.08 0.173,-0.09 0.16,-0.137C0.157,-0.148 0.155,-0.163 0.155,-0.178L0.155,-0.306Z" style="fill-rule:nonzero;"/>
            </g>
            <g transform="matrix(100,0,0,100,667.621,752.501)">
                <path d="M0.208,-0.494C0.117,-0.494 0.031,-0.418 0.031,-0.242C0.031,-0.078 0.101,0.008 0.204,0.008C0.278,0.008 0.379,-0.048 0.379,-0.244C0.379,-0.404 0.31,-0.494 0.208,-0.494ZM0.206,-0.412C0.261,-0.412 0.273,-0.314 0.273,-0.244C0.273,-0.17 0.261,-0.074 0.208,-0.074C0.151,-0.074 0.137,-0.162 0.137,-0.244C0.137,-0.314 0.149,-0.412 0.206,-0.412Z" style="fill-rule:nonzero;"/>
            </g>
        </g>
        <g transform="matrix(1,0,0,1,-202.703,408.809)">
            <g transform="matrix(100,0,0,100,518.821,752.501)">
                <path d="M-0.024,0.2C0.015,0.199 0.069,0.185 0.102,0.156C0.141,0.122 0.16,0.072 0.16,-0.033L0.16,-0.487L0.053,-0.487L0.053,-0.057C0.053,0.025 0.048,0.061 0.03,0.084C0.014,0.105 -0.011,0.111 -0.034,0.115L-0.024,0.2ZM0.107,-0.676C0.075,-0.676 0.049,-0.652 0.049,-0.614C0.049,-0.577 0.074,-0.552 0.105,-0.552C0.14,-0.552 0.164,-0.577 0.164,-0.614C0.164,-0.652 0.14,-0.676 0.107,-0.676Z" style="fill-rule:nonzero;"/>
            </g>
            <g transform="matrix(100,0,0,100,539.621,752.501)">
                <path d="M0.377,-0.487L0.27,-0.487L0.27,-0.171C0.27,-0.155 0.268,-0.14 0.264,-0.129C0.259,-0.11 0.242,-0.081 0.209,-0.081C0.165,-0.081 0.153,-0.13 0.153,-0.199L0.153,-0.487L0.046,-0.487L0.046,-0.186C0.046,-0.059 0.082,0.008 0.171,0.008C0.222,0.008 0.261,-0.022 0.28,-0.051L0.282,-0.051L0.288,-0L0.381,-0C0.379,-0.041 0.377,-0.089 0.377,-0.142L0.377,-0.487Z" style="fill-rule:nonzero;"/>
            </g>
            <g transform="matrix(100,0,0,100,582.421,752.501)">
                <path d="M0.049,-0L0.156,-0L0.156,-0.3C0.156,-0.318 0.158,-0.334 0.161,-0.345C0.171,-0.384 0.195,-0.404 0.221,-0.404C0.268,-0.404 0.278,-0.357 0.278,-0.308L0.278,-0L0.385,-0L0.385,-0.318C0.385,-0.431 0.342,-0.494 0.26,-0.494C0.209,-0.494 0.168,-0.468 0.145,-0.429L0.143,-0.429L0.138,-0.487L0.045,-0.487C0.047,-0.444 0.049,-0.405 0.049,-0.35L0.049,-0Z" style="fill-rule:nonzero;"/>
            </g>
            <g transform="matrix(100,0,0,100,625.821,752.501)">
                <path d="M0.346,-0.305C0.346,-0.408 0.314,-0.494 0.188,-0.494C0.129,-0.494 0.078,-0.474 0.054,-0.459L0.074,-0.387C0.101,-0.403 0.13,-0.413 0.165,-0.413C0.218,-0.413 0.238,-0.378 0.238,-0.328L0.238,-0.315C0.128,-0.314 0.022,-0.261 0.022,-0.136C0.022,-0.05 0.075,0.008 0.145,0.008C0.187,0.008 0.223,-0.012 0.248,-0.05L0.25,-0.05L0.256,-0L0.352,-0C0.347,-0.032 0.346,-0.073 0.346,-0.111L0.346,-0.305ZM0.241,-0.153C0.241,-0.144 0.24,-0.136 0.238,-0.128C0.229,-0.09 0.204,-0.072 0.177,-0.072C0.153,-0.072 0.124,-0.092 0.124,-0.147C0.124,-0.232 0.199,-0.243 0.241,-0.244L0.241,-0.153Z" style="fill-rule:nonzero;"/>
            </g>
        </g>
        <g transform="matrix(1,0,0,1,-1445.25,-626.237)">
            <g transform="matrix(100,0,0,100,518.821,752.501)">
                <path d="M0.049,-0L0.156,-0L0.156,-0.308C0.156,-0.319 0.158,-0.335 0.16,-0.344C0.171,-0.386 0.194,-0.404 0.222,-0.404C0.267,-0.404 0.278,-0.356 0.278,-0.303L0.278,-0L0.385,-0L0.385,-0.307C0.385,-0.43 0.342,-0.494 0.265,-0.494C0.24,-0.494 0.218,-0.487 0.2,-0.476C0.184,-0.466 0.169,-0.452 0.158,-0.435L0.156,-0.435L0.156,-0.692L0.049,-0.692L0.049,-0Z" style="fill-rule:nonzero;"/>
            </g>
            <g transform="matrix(100,0,0,100,562.221,752.501)">
                <path d="M0.346,-0.305C0.346,-0.408 0.314,-0.494 0.188,-0.494C0.129,-0.494 0.078,-0.474 0.054,-0.459L0.074,-0.387C0.101,-0.403 0.13,-0.413 0.165,-0.413C0.218,-0.413 0.238,-0.378 0.238,-0.328L0.238,-0.315C0.128,-0.314 0.022,-0.261 0.022,-0.136C0.022,-0.05 0.075,0.008 0.145,0.008C0.187,0.008 0.223,-0.012 0.248,-0.05L0.25,-0.05L0.256,-0L0.352,-0C0.347,-0.032 0.346,-0.073 0.346,-0.111L0.346,-0.305ZM0.241,-0.153C0.241,-0.144 0.24,-0.136 0.238,-0.128C0.229,-0.09 0.204,-0.072 0.177,-0.072C0.153,-0.072 0.124,-0.092 0.124,-0.147C0.124,-0.232 0.199,-0.243 0.241,-0.244L0.241,-0.153Z" style="fill-rule:nonzero;"/>
            </g>
            <g transform="matrix(100,0,0,100,601.821,752.501)">
                <path d="M0.155,-0.692L0.049,-0.692L0.049,-0L0.155,-0L0.155,-0.17L0.18,-0.213L0.265,-0L0.384,-0L0.253,-0.283L0.375,-0.487L0.26,-0.487L0.182,-0.33C0.174,-0.311 0.166,-0.292 0.157,-0.268L0.155,-0.268L0.155,-0.692Z" style="fill-rule:nonzero;"/>
            </g>
            <g transform="matrix(100,0,0,100,639.121,752.501)">
                <path d="M0.363,-0.215C0.365,-0.228 0.366,-0.244 0.366,-0.272C0.366,-0.402 0.314,-0.494 0.212,-0.494C0.107,-0.494 0.03,-0.396 0.03,-0.236C0.03,-0.085 0.097,0.006 0.223,0.006C0.268,0.006 0.315,-0.003 0.346,-0.017L0.33,-0.093C0.309,-0.084 0.279,-0.076 0.243,-0.076C0.186,-0.076 0.135,-0.106 0.134,-0.215L0.363,-0.215ZM0.134,-0.291C0.136,-0.348 0.157,-0.414 0.204,-0.414C0.242,-0.414 0.268,-0.368 0.267,-0.291L0.134,-0.291Z" style="fill-rule:nonzero;"/>
            </g>
            <g transform="matrix(100,0,0,100,678.521,752.501)">
                <path d="M0.049,-0L0.155,-0L0.155,-0.307C0.155,-0.321 0.157,-0.335 0.159,-0.346C0.168,-0.385 0.193,-0.405 0.219,-0.405C0.267,-0.405 0.273,-0.354 0.273,-0.311L0.273,-0L0.379,-0L0.379,-0.31C0.379,-0.324 0.38,-0.339 0.383,-0.348C0.392,-0.384 0.414,-0.405 0.442,-0.405C0.489,-0.405 0.497,-0.353 0.497,-0.294L0.497,-0L0.603,-0L0.603,-0.314C0.603,-0.434 0.559,-0.494 0.481,-0.494C0.456,-0.494 0.433,-0.488 0.413,-0.476C0.395,-0.464 0.377,-0.445 0.365,-0.424L0.363,-0.424C0.345,-0.47 0.309,-0.494 0.259,-0.494C0.208,-0.494 0.168,-0.465 0.145,-0.428L0.143,-0.428L0.138,-0.487L0.045,-0.487C0.047,-0.444 0.049,-0.405 0.049,-0.35L0.049,-0Z" style="fill-rule:nonzero;"/>
            </g>
            <g transform="matrix(100,0,0,100,743.821,752.501)">
                <path d="M0.156,-0L0.156,-0.487L0.049,-0.487L0.049,-0L0.156,-0ZM0.101,-0.676C0.07,-0.676 0.044,-0.652 0.044,-0.614C0.044,-0.577 0.069,-0.552 0.1,-0.552C0.135,-0.552 0.159,-0.577 0.159,-0.614C0.159,-0.652 0.135,-0.676 0.101,-0.676Z" style="fill-rule:nonzero;"/>
            </g>
            <g transform="matrix(100,0,0,100,764.321,752.501)">
                <path d="M0.02,-0.022C0.041,-0.005 0.086,0.006 0.124,0.006C0.216,0.006 0.285,-0.044 0.285,-0.143C0.285,-0.204 0.25,-0.252 0.185,-0.29C0.139,-0.32 0.127,-0.335 0.127,-0.362C0.127,-0.388 0.145,-0.412 0.182,-0.412C0.208,-0.412 0.23,-0.403 0.249,-0.391L0.27,-0.47C0.247,-0.483 0.216,-0.494 0.177,-0.494C0.089,-0.494 0.028,-0.432 0.028,-0.349C0.028,-0.299 0.054,-0.253 0.127,-0.209C0.172,-0.181 0.186,-0.161 0.186,-0.131C0.186,-0.095 0.163,-0.075 0.125,-0.075C0.092,-0.075 0.059,-0.089 0.041,-0.101L0.02,-0.022Z" style="fill-rule:nonzero;"/>
            </g>
            <g transform="matrix(100,0,0,100,795.121,752.501)">
                <path d="M0.07,-0.571L0.07,-0.487L0.012,-0.487L0.012,-0.41L0.07,-0.41L0.07,-0.156C0.07,-0.083 0.082,-0.048 0.106,-0.024C0.127,-0.003 0.158,0.006 0.192,0.006C0.222,0.006 0.246,0.003 0.262,-0.002L0.26,-0.085C0.249,-0.083 0.239,-0.082 0.227,-0.082C0.2,-0.082 0.177,-0.097 0.177,-0.157L0.177,-0.41L0.271,-0.41L0.271,-0.487L0.177,-0.487L0.177,-0.608L0.07,-0.571Z" style="fill-rule:nonzero;"/>
            </g>
            <g transform="matrix(100,0,0,100,823.021,752.501)">
                <path d="M0.208,-0.494C0.117,-0.494 0.031,-0.418 0.031,-0.242C0.031,-0.078 0.101,0.008 0.204,0.008C0.278,0.008 0.379,-0.048 0.379,-0.244C0.379,-0.404 0.31,-0.494 0.208,-0.494ZM0.206,-0.412C0.261,-0.412 0.273,-0.314 0.273,-0.244C0.273,-0.17 0.261,-0.074 0.208,-0.074C0.151,-0.074 0.137,-0.162 0.137,-0.244C0.137,-0.314 0.149,-0.412 0.206,-0.412Z" style="fill-rule:nonzero;"/>
            </g>
        </g>
    </g>
</svg>
